<mxfile host="app.diagrams.net" agent="Mozilla/5.0 (Windows NT 10.0; Win64; x64) AppleWebKit/537.36 (KHTML, like Gecko) Chrome/136.0.0.0 Safari/537.36" version="27.0.6">
  <diagram name="Page-1" id="ZZypccXyvFFGF9YTPRsX">
    <mxGraphModel dx="1426" dy="777" grid="1" gridSize="10" guides="1" tooltips="1" connect="1" arrows="1" fold="1" page="1" pageScale="1" pageWidth="850" pageHeight="1100" math="0" shadow="0">
      <root>
        <mxCell id="0" />
        <mxCell id="1" parent="0" />
        <mxCell id="xVET2IlYS-7Jntt8BBnI-1" value="Khách hàng" style="shape=umlLifeline;perimeter=lifelinePerimeter;whiteSpace=wrap;html=1;container=1;dropTarget=0;collapsible=0;recursiveResize=0;outlineConnect=0;portConstraint=eastwest;newEdgeStyle={&quot;curved&quot;:0,&quot;rounded&quot;:0};" vertex="1" parent="1">
          <mxGeometry x="140" y="110" width="100" height="70" as="geometry" />
        </mxCell>
        <mxCell id="xVET2IlYS-7Jntt8BBnI-2" value="Hệ thống" style="shape=umlLifeline;perimeter=lifelinePerimeter;whiteSpace=wrap;html=1;container=1;dropTarget=0;collapsible=0;recursiveResize=0;outlineConnect=0;portConstraint=eastwest;newEdgeStyle={&quot;curved&quot;:0,&quot;rounded&quot;:0};" vertex="1" parent="1">
          <mxGeometry x="375" y="110" width="100" height="70" as="geometry" />
        </mxCell>
        <mxCell id="xVET2IlYS-7Jntt8BBnI-3" value="" style="html=1;points=[[0,0,0,0,5],[0,1,0,0,-5],[1,0,0,0,5],[1,1,0,0,-5]];perimeter=orthogonalPerimeter;outlineConnect=0;targetShapes=umlLifeline;portConstraint=eastwest;newEdgeStyle={&quot;curved&quot;:0,&quot;rounded&quot;:0};fillColor=#ffff88;strokeColor=#36393d;" vertex="1" parent="1">
          <mxGeometry x="173.75" y="180" width="32.5" height="270" as="geometry" />
        </mxCell>
        <mxCell id="xVET2IlYS-7Jntt8BBnI-4" value="" style="html=1;points=[[0,0,0,0,5],[0,1,0,0,-5],[1,0,0,0,5],[1,1,0,0,-5]];perimeter=orthogonalPerimeter;outlineConnect=0;targetShapes=umlLifeline;portConstraint=eastwest;newEdgeStyle={&quot;curved&quot;:0,&quot;rounded&quot;:0};fillColor=#ffff88;strokeColor=#36393d;" vertex="1" parent="1">
          <mxGeometry x="409" y="180" width="32.5" height="270" as="geometry" />
        </mxCell>
        <mxCell id="xVET2IlYS-7Jntt8BBnI-7" value="Hiển thị thông tin các sản phẩm" style="html=1;verticalAlign=bottom;endArrow=open;dashed=1;endSize=8;curved=0;rounded=0;" edge="1" parent="1" source="xVET2IlYS-7Jntt8BBnI-4">
          <mxGeometry x="-0.0234" relative="1" as="geometry">
            <mxPoint x="286.25" y="290" as="sourcePoint" />
            <mxPoint x="206.25" y="290" as="targetPoint" />
            <mxPoint as="offset" />
          </mxGeometry>
        </mxCell>
        <mxCell id="xVET2IlYS-7Jntt8BBnI-10" value="Chọn danh sách sản phẩm" style="html=1;verticalAlign=bottom;endArrow=block;curved=0;rounded=0;" edge="1" parent="1" target="xVET2IlYS-7Jntt8BBnI-4">
          <mxGeometry width="80" relative="1" as="geometry">
            <mxPoint x="206.25" y="230" as="sourcePoint" />
            <mxPoint x="286.25" y="230" as="targetPoint" />
            <Array as="points">
              <mxPoint x="256.25" y="230" />
            </Array>
          </mxGeometry>
        </mxCell>
        <mxCell id="xVET2IlYS-7Jntt8BBnI-11" value="Chọn sản phẩm muốn xem chi tiết" style="html=1;verticalAlign=bottom;endArrow=block;curved=0;rounded=0;" edge="1" parent="1">
          <mxGeometry width="80" relative="1" as="geometry">
            <mxPoint x="206.25" y="350" as="sourcePoint" />
            <mxPoint x="409" y="350" as="targetPoint" />
            <Array as="points">
              <mxPoint x="256.25" y="350" />
            </Array>
          </mxGeometry>
        </mxCell>
        <mxCell id="xVET2IlYS-7Jntt8BBnI-12" value="Hiển thị thông tin chi tiết sản phẩm" style="html=1;verticalAlign=bottom;endArrow=open;dashed=1;endSize=8;curved=0;rounded=0;" edge="1" parent="1" source="xVET2IlYS-7Jntt8BBnI-4">
          <mxGeometry relative="1" as="geometry">
            <mxPoint x="286.25" y="400" as="sourcePoint" />
            <mxPoint x="206.25" y="400" as="targetPoint" />
          </mxGeometry>
        </mxCell>
      </root>
    </mxGraphModel>
  </diagram>
</mxfile>
